<svg viewBox="0 0 395.52 89.14587573166747" height="89.14587573166747" width="395.52" data-background-color="#c8c8c8" preserveAspectRatio="xMidYMid meet" id="tight-bounds" xmlns="http://www.w3.org/2000/svg" xmlns:xlink="http://www.w3.org/1999/xlink"><g><svg viewBox="0 0 395.52 89.14587573166747" height="89.14587573166747" width="395.52"><g><svg viewBox="0 0 395.52 89.14587573166747" height="89.14587573166747" width="395.52"><g id="textblocktransform"><svg viewBox="0 0 395.52 89.14587573166747" height="89.14587573166747" width="395.52" id="textblock"><g><svg viewBox="0 0 395.52 46.87008917811521" height="46.87008917811521" width="395.52"><g transform="matrix(1,0,0,1,0,0)"><svg width="395.52" viewBox="1.4900000095367432 -36.0099983215332 303.8600158691406 36.0099983215332" height="46.87008917811521" data-palette-color="#000000"><path d="M1.76-35.01L7.79-35.01 17.14-21.9 26.54-35.01 32.59-35.01 20.19-17.65 32.86 0 26.81 0 17.14-13.45 7.54 0 1.49 0 14.16-17.65 1.76-35.01ZM60.35-21.19L60.35-10.55 43.14-10.55 43.14-4.81 60.35-4.81 60.35 0 43.14 0Q42.16 0 41.28-0.38 40.4-0.76 39.76-1.4 39.11-2.05 38.73-2.93 38.35-3.81 38.35-4.81L38.35-4.81 38.35-21.19Q38.35-22.19 38.73-23.07 39.11-23.95 39.76-24.6 40.4-25.24 41.28-25.62 42.16-26 43.14-26L43.14-26 55.54-26Q56.54-26 57.42-25.62 58.3-25.24 58.95-24.6 59.59-23.95 59.97-23.07 60.35-22.19 60.35-21.19L60.35-21.19ZM55.54-21.19L43.14-21.19 43.14-15.36 55.54-15.36 55.54-21.19ZM85.54-21.19L73.14-21.19 73.14-4.81 85.54-4.81 85.54-9.2 90.35-9.2 90.35-4.81Q90.35-3.81 89.97-2.93 89.59-2.05 88.95-1.4 88.3-0.76 87.42-0.38 86.54 0 85.54 0L85.54 0 73.14 0Q72.16 0 71.28-0.38 70.41-0.76 69.76-1.4 69.11-2.05 68.73-2.93 68.35-3.81 68.35-4.81L68.35-4.81 68.35-21.19Q68.35-22.19 68.73-23.07 69.11-23.95 69.76-24.6 70.41-25.24 71.28-25.62 72.16-26 73.14-26L73.14-26 85.54-26Q86.54-26 87.42-25.62 88.3-25.24 88.95-24.6 89.59-23.95 89.97-23.07 90.35-22.19 90.35-21.19L90.35-21.19 90.35-16.8 85.54-16.8 85.54-21.19ZM98.36-4.81L98.36-26 103.14-26 103.14-4.81 116.55-4.81 116.55-26 121.35-26 121.35 0 116.55 0 116.55-4.39Q116.47-3.49 116.06-2.69 115.64-1.88 114.99-1.28 114.35-0.68 113.52-0.34 112.69 0 111.76 0L111.76 0 103.14 0Q102.17 0 101.29-0.38 100.41-0.76 99.76-1.4 99.11-2.05 98.74-2.93 98.36-3.81 98.36-4.81L98.36-4.81ZM144.06-21.19L134.15-21.19 134.15 0 129.36 0 129.36-26 134.15-26 134.15-21.41Q134.19-22.36 134.58-23.21 134.98-24.05 135.62-24.67 136.27-25.29 137.12-25.65 137.98-26 138.95-26L138.95-26 144.06-26Q145.06-26 145.93-25.62 146.79-25.24 147.45-24.6 148.11-23.95 148.49-23.07 148.87-22.19 148.87-21.19L148.87-21.19 148.87-16.8 144.06-16.8 144.06-21.19ZM176.84-21.19L176.84-10.55 159.63-10.55 159.63-4.81 176.84-4.81 176.84 0 159.63 0Q158.65 0 157.78-0.38 156.9-0.76 156.25-1.4 155.6-2.05 155.22-2.93 154.85-3.81 154.85-4.81L154.85-4.81 154.85-21.19Q154.85-22.19 155.22-23.07 155.6-23.95 156.25-24.6 156.9-25.24 157.78-25.62 158.65-26 159.63-26L159.63-26 172.03-26Q173.03-26 173.91-25.62 174.79-25.24 175.44-24.6 176.09-23.95 176.46-23.07 176.84-22.19 176.84-21.19L176.84-21.19ZM172.03-21.19L159.63-21.19 159.63-15.36 172.03-15.36 172.03-21.19ZM185.34-5L185.34-30Q185.34-31.03 185.73-31.95 186.12-32.86 186.8-33.53 187.49-34.2 188.4-34.61 189.32-35.01 190.34-35.01L190.34-35.01 209.34-35.01Q210.36-35.01 211.28-34.61 212.19-34.2 212.88-33.53 213.56-32.86 213.95-31.95 214.34-31.03 214.34-30L214.34-30 214.34-25.49 209.34-25.49 209.34-30 190.34-30 190.34-5 209.34-5 209.34-9.5 214.34-9.5 214.34-5Q214.34-3.98 213.95-3.06 213.56-2.15 212.88-1.46 212.19-0.78 211.28-0.39 210.36 0 209.34 0L209.34 0 190.34 0Q189.32 0 188.4-0.39 187.49-0.78 186.8-1.46 186.12-2.15 185.73-3.06 185.34-3.98 185.34-5L185.34-5ZM244.34-21.19L244.34-4.81Q244.34-3.81 243.96-2.93 243.59-2.05 242.94-1.4 242.29-0.76 241.43-0.38 240.56 0 239.56 0L239.56 0 226.64 0Q225.67 0 224.79-0.38 223.91-0.76 223.26-1.4 222.61-2.05 222.24-2.93 221.86-3.81 221.86-4.81L221.86-4.81 221.86-21.19Q221.86-22.19 222.24-23.07 222.61-23.95 223.26-24.6 223.91-25.24 224.79-25.62 225.67-26 226.64-26L226.64-26 239.56-26Q240.56-26 241.43-25.62 242.29-25.24 242.94-24.6 243.59-23.95 243.96-23.07 244.34-22.19 244.34-21.19L244.34-21.19ZM239.56-21.19L226.64-21.19 226.64-4.81 239.56-4.81 239.56-21.19ZM252.35-4.81L252.35-21.19Q252.35-22.19 252.73-23.07 253.11-23.95 253.75-24.6 254.4-25.24 255.28-25.62 256.16-26 257.13-26L257.13-26 270.54-26 270.54-36.01 275.35-36.01 275.35 0 270.54 0 270.54-4.39Q270.46-3.49 270.05-2.69 269.63-1.88 268.99-1.28 268.34-0.68 267.51-0.34 266.68 0 265.75 0L265.75 0 257.13 0Q256.16 0 255.28-0.38 254.4-0.76 253.75-1.4 253.11-2.05 252.73-2.93 252.35-3.81 252.35-4.81L252.35-4.81ZM257.13-21.19L257.13-4.81 270.54-4.81 270.54-21.19 257.13-21.19ZM305.35-21.19L305.35-10.55 288.14-10.55 288.14-4.81 305.35-4.81 305.35 0 288.14 0Q287.16 0 286.28-0.38 285.4-0.76 284.76-1.4 284.11-2.05 283.73-2.93 283.35-3.81 283.35-4.81L283.35-4.81 283.35-21.19Q283.35-22.19 283.73-23.07 284.11-23.95 284.76-24.6 285.4-25.24 286.28-25.62 287.16-26 288.14-26L288.14-26 300.54-26Q301.54-26 302.42-25.62 303.3-25.24 303.94-24.6 304.59-23.95 304.97-23.07 305.35-22.19 305.35-21.19L305.35-21.19ZM300.54-21.19L288.14-21.19 288.14-15.36 300.54-15.36 300.54-21.19Z" opacity="1" transform="matrix(1,0,0,1,0,0)" fill="#000000" class="wordmark-text-0" data-fill-palette-color="primary" id="text-0"></path></svg></g></svg></g><g transform="matrix(1,0,0,1,0,57.934992350927935)"><svg viewBox="0 0 395.52 31.21088338073954" height="31.21088338073954" width="395.52"><g transform="matrix(1,0,0,1,0,0)"><svg width="395.52" viewBox="3 -37.70000076293945 615.1799926757812 48.55000305175781" height="31.21088338073954" data-palette-color="#000000"><path d="M24.6-34.55L24.6 0 16.5 0 7.75-28.3Q8.15-24.7 8.38-21.68 8.6-18.65 8.6-14.5L8.6-14.5 8.6 0 3 0 3-34.55 11.05-34.55 19.8-6.25Q19.5-8.05 19.23-11.35 18.95-14.65 18.95-18.05L18.95-18.05 18.95-34.55 24.6-34.55ZM49.3-13.85Q49.3-13.4 49.15-11.3L49.15-11.3 35.5-11.3Q35.7-7.2 36.92-5.58 38.15-3.95 40.4-3.95L40.4-3.95Q41.95-3.95 43.2-4.48 44.45-5 45.9-6.15L45.9-6.15 48.45-2.65Q44.95 0.75 40.05 0.75L40.05 0.75Q34.85 0.75 32.07-2.85 29.3-6.45 29.3-13L29.3-13Q29.3-19.55 31.95-23.35 34.6-27.15 39.45-27.15L39.45-27.15Q44.1-27.15 46.7-23.78 49.3-20.4 49.3-13.85L49.3-13.85ZM43.3-15.3L43.3-15.65Q43.3-19.4 42.4-21.13 41.5-22.85 39.5-22.85L39.5-22.85Q37.65-22.85 36.67-21.18 35.7-19.5 35.5-15.3L35.5-15.3 43.3-15.3ZM71.05-26.45L64.95-14.15 72.09 0 65.59 0 61.2-10.65 56.9 0 50.55 0 57.7-13.95 51.25-26.45 57.65-26.45 61.3-17.25 64.84-26.45 71.05-26.45ZM85.94-5L88.09-1.2Q85.64 0.75 82.34 0.75L82.34 0.75Q78.89 0.75 77.09-1.23 75.29-3.2 75.29-6.6L75.29-6.6 75.29-22 72.19-22 72.19-26.45 75.29-26.45 75.29-32.3 81.44-33.05 81.44-26.45 86.44-26.45 85.84-22 81.44-22 81.44-6.6Q81.44-4.2 83.49-4.2L83.49-4.2Q84.14-4.2 84.64-4.38 85.14-4.55 85.94-5L85.94-5ZM112.89-35.25Q115.74-35.25 117.99-34.23 120.24-33.2 122.24-31.25L122.24-31.25 119.04-27.95Q117.49-29.3 116.14-29.88 114.79-30.45 113.09-30.45L113.09-30.45Q109.79-30.45 107.91-27.5 106.04-24.55 106.04-17.3L106.04-17.3Q106.04-12.2 106.71-9.33 107.39-6.45 108.71-5.3 110.04-4.15 112.19-4.15L112.19-4.15Q114.44-4.15 116.29-5.4L116.29-5.4 116.29-14.75 112.39-14.75 111.74-19.5 122.34-19.5 122.34-2.6Q120.19-1.05 117.56-0.18 114.94 0.7 112.24 0.7L112.24 0.7Q105.79 0.7 102.59-3.68 99.39-8.05 99.39-17.3L99.39-17.3Q99.39-23.3 101.16-27.33 102.94-31.35 105.99-33.3 109.04-35.25 112.89-35.25L112.89-35.25ZM146.24-13.85Q146.24-13.4 146.09-11.3L146.09-11.3 132.44-11.3Q132.64-7.2 133.86-5.58 135.09-3.95 137.34-3.95L137.34-3.95Q138.89-3.95 140.14-4.48 141.39-5 142.84-6.15L142.84-6.15 145.39-2.65Q141.89 0.75 136.99 0.75L136.99 0.75Q131.79 0.75 129.01-2.85 126.24-6.45 126.24-13L126.24-13Q126.24-19.55 128.89-23.35 131.54-27.15 136.39-27.15L136.39-27.15Q141.04-27.15 143.64-23.78 146.24-20.4 146.24-13.85L146.24-13.85ZM140.24-15.3L140.24-15.65Q140.24-19.4 139.34-21.13 138.44-22.85 136.44-22.85L136.44-22.85Q134.59-22.85 133.61-21.18 132.64-19.5 132.44-15.3L132.44-15.3 140.24-15.3ZM162.88-27.15Q165.73-27.15 167.38-25.1 169.03-23.05 169.03-19.6L169.03-19.6 169.03 0 162.88 0 162.88-18.9Q162.88-20.8 162.36-21.63 161.83-22.45 160.83-22.45L160.83-22.45Q158.73-22.45 156.68-18.5L156.68-18.5 156.68 0 150.53 0 150.53-26.45 155.88-26.45 156.33-23Q157.68-25.1 159.21-26.13 160.73-27.15 162.88-27.15L162.88-27.15ZM193.33-35.25Q196.33-35.25 198.63-34.2 200.93-33.15 202.88-31.05L202.88-31.05 199.93-27.65Q198.38-29.05 196.9-29.75 195.43-30.45 193.78-30.45L193.78-30.45Q191.88-30.45 190.78-29.28 189.68-28.1 189.68-26.2L189.68-26.2Q189.68-24.3 190.83-23.1 191.98-21.9 195.33-20.6L195.33-20.6Q199.63-18.85 201.65-16.5 203.68-14.15 203.68-9.85L203.68-9.85Q203.68-6.9 202.33-4.48 200.98-2.05 198.45-0.65 195.93 0.75 192.58 0.75L192.58 0.75Q189.13 0.75 186.58-0.48 184.03-1.7 181.93-3.95L181.93-3.95 185.13-7.45Q186.93-5.85 188.58-5 190.23-4.15 192.18-4.15L192.18-4.15Q194.48-4.15 195.75-5.58 197.03-7 197.03-9.45L197.03-9.45Q197.03-11.6 195.9-12.98 194.78-14.35 191.73-15.5L191.73-15.5Q187.13-17.35 185.1-19.75 183.08-22.15 183.08-25.75L183.08-25.75Q183.08-28.5 184.4-30.65 185.73-32.8 188.08-34.02 190.43-35.25 193.33-35.25L193.33-35.25ZM217.08-27.15Q222.08-27.15 224.85-23.65 227.63-20.15 227.63-13.25L227.63-13.25Q227.63-6.65 224.83-2.95 222.03 0.75 217.08 0.75L217.08 0.75Q212.13 0.75 209.33-2.88 206.53-6.5 206.53-13.25L206.53-13.25Q206.53-19.95 209.33-23.55 212.13-27.15 217.08-27.15L217.08-27.15ZM217.08-22.5Q214.93-22.5 213.93-20.38 212.93-18.25 212.93-13.25L212.93-13.25Q212.93-8.2 213.93-6.08 214.93-3.95 217.08-3.95L217.08-3.95Q219.23-3.95 220.23-6.08 221.23-8.2 221.23-13.25L221.23-13.25Q221.23-18.3 220.23-20.4 219.23-22.5 217.08-22.5L217.08-22.5ZM241.87-33.05Q240.47-33.05 239.8-32.3 239.12-31.55 239.12-30L239.12-30 239.12-26.45 244.17-26.45 243.47-22 239.12-22 239.12 0 232.97 0 232.97-22 229.67-22 229.67-26.45 232.97-26.45 232.97-29.8Q232.97-33.4 235.07-35.55 237.17-37.7 241.07-37.7L241.07-37.7Q244.12-37.7 246.97-36.2L246.97-36.2 245.27-32.2Q243.52-33.05 241.87-33.05L241.87-33.05ZM258.12-5L260.27-1.2Q257.82 0.75 254.52 0.75L254.52 0.75Q251.07 0.75 249.27-1.23 247.47-3.2 247.47-6.6L247.47-6.6 247.47-22 244.37-22 244.37-26.45 247.47-26.45 247.47-32.3 253.62-33.05 253.62-26.45 258.62-26.45 258.02-22 253.62-22 253.62-6.6Q253.62-4.2 255.67-4.2L255.67-4.2Q256.32-4.2 256.82-4.38 257.32-4.55 258.12-5L258.12-5ZM284.87-26.45L290.57-26.45 286.02 0 278.52 0 275.57-20.85 272.67 0 265.22 0 260.57-26.45 266.52-26.45 269.22-4.6 272.57-26.45 278.82-26.45 282.02-4.6 284.87-26.45ZM310.97-6.4Q310.97-5.1 311.32-4.48 311.67-3.85 312.47-3.45L312.47-3.45 311.22 0.65Q309.17 0.4 307.94-0.45 306.72-1.3 306.12-3.05L306.12-3.05Q303.82 0.75 299.67 0.75L299.67 0.75Q296.37 0.75 294.42-1.48 292.47-3.7 292.47-7.4L292.47-7.4Q292.47-11.7 295.14-13.95 297.82-16.2 302.92-16.2L302.92-16.2 304.97-16.2 304.97-18.05Q304.97-20.55 304.09-21.58 303.22-22.6 301.27-22.6L301.27-22.6Q298.92-22.6 295.42-21.3L295.42-21.3 294.02-25.3Q296.02-26.2 298.17-26.68 300.32-27.15 302.27-27.15L302.27-27.15Q310.97-27.15 310.97-18.35L310.97-18.35 310.97-6.4ZM301.32-3.7Q303.72-3.7 304.97-7L304.97-7 304.97-12.55 303.52-12.55Q300.97-12.55 299.79-11.4 298.62-10.25 298.62-7.85L298.62-7.85Q298.62-5.8 299.32-4.75 300.02-3.7 301.32-3.7L301.32-3.7ZM328.41-27.1Q329.56-27.1 330.46-26.75L330.46-26.75 329.46-20.85Q328.46-21.1 327.61-21.1L327.61-21.1Q325.71-21.1 324.61-19.45 323.51-17.8 322.91-14.55L322.91-14.55 322.91 0 316.76 0 316.76-26.45 322.11-26.45 322.56-21.85Q324.41-27.1 328.41-27.1L328.41-27.1ZM352.16-13.85Q352.16-13.4 352.01-11.3L352.01-11.3 338.36-11.3Q338.56-7.2 339.79-5.58 341.01-3.95 343.26-3.95L343.26-3.95Q344.81-3.95 346.06-4.48 347.31-5 348.76-6.15L348.76-6.15 351.31-2.65Q347.81 0.75 342.91 0.75L342.91 0.75Q337.71 0.75 334.94-2.85 332.16-6.45 332.16-13L332.16-13Q332.16-19.55 334.81-23.35 337.46-27.15 342.31-27.15L342.31-27.15Q346.96-27.15 349.56-23.78 352.16-20.4 352.16-13.85L352.16-13.85ZM346.16-15.3L346.16-15.65Q346.16-19.4 345.26-21.13 344.36-22.85 342.36-22.85L342.36-22.85Q340.51-22.85 339.54-21.18 338.56-19.5 338.36-15.3L338.36-15.3 346.16-15.3ZM374.16-34.55Q378.51-34.55 381.68-33.23 384.86-31.9 386.83-28.13 388.81-24.35 388.81-17.45L388.81-17.45Q388.81-7.7 384.93-3.85 381.06 0 374.81 0L374.81 0 366.46 0 366.46-34.55 374.16-34.55ZM375.11-29.8L372.81-29.8 372.81-4.75 375.16-4.75Q377.41-4.75 378.93-5.8 380.46-6.85 381.33-9.65 382.21-12.45 382.21-17.45L382.21-17.45Q382.21-22.55 381.28-25.25 380.36-27.95 378.83-28.88 377.31-29.8 375.11-29.8L375.11-29.8ZM412.25-13.85Q412.25-13.4 412.1-11.3L412.1-11.3 398.45-11.3Q398.65-7.2 399.88-5.58 401.1-3.95 403.35-3.95L403.35-3.95Q404.9-3.95 406.15-4.48 407.4-5 408.85-6.15L408.85-6.15 411.4-2.65Q407.9 0.75 403 0.75L403 0.75Q397.8 0.75 395.03-2.85 392.25-6.45 392.25-13L392.25-13Q392.25-19.55 394.9-23.35 397.55-27.15 402.4-27.15L402.4-27.15Q407.05-27.15 409.65-23.78 412.25-20.4 412.25-13.85L412.25-13.85ZM406.25-15.3L406.25-15.65Q406.25-19.4 405.35-21.13 404.45-22.85 402.45-22.85L402.45-22.85Q400.6-22.85 399.63-21.18 398.65-19.5 398.45-15.3L398.45-15.3 406.25-15.3ZM428.95-26.45L435-26.45 428.1 0 420.85 0 413.75-26.45 420.1-26.45 424.45-4.95 428.95-26.45ZM456.75-13.85Q456.75-13.4 456.6-11.3L456.6-11.3 442.95-11.3Q443.15-7.2 444.37-5.58 445.6-3.95 447.85-3.95L447.85-3.95Q449.4-3.95 450.65-4.48 451.9-5 453.35-6.15L453.35-6.15 455.9-2.65Q452.4 0.75 447.5 0.75L447.5 0.75Q442.3 0.75 439.52-2.85 436.75-6.45 436.75-13L436.75-13Q436.75-19.55 439.4-23.35 442.05-27.15 446.9-27.15L446.9-27.15Q451.55-27.15 454.15-23.78 456.75-20.4 456.75-13.85L456.75-13.85ZM450.75-15.3L450.75-15.65Q450.75-19.4 449.85-21.13 448.95-22.85 446.95-22.85L446.95-22.85Q445.1-22.85 444.12-21.18 443.15-19.5 442.95-15.3L442.95-15.3 450.75-15.3ZM466.65 0.75Q463.95 0.75 462.37-0.93 460.8-2.6 460.8-5.4L460.8-5.4 460.8-37.05 466.95-37.7 466.95-5.65Q466.95-5 467.25-4.6 467.55-4.2 468.15-4.2L468.15-4.2Q468.5-4.2 468.82-4.3 469.15-4.4 469.25-4.4L469.25-4.4 470.45-0.2Q468.75 0.75 466.65 0.75L466.65 0.75ZM482.89-27.15Q487.89-27.15 490.67-23.65 493.44-20.15 493.44-13.25L493.44-13.25Q493.44-6.65 490.64-2.95 487.84 0.75 482.89 0.75L482.89 0.75Q477.94 0.75 475.14-2.88 472.34-6.5 472.34-13.25L472.34-13.25Q472.34-19.95 475.14-23.55 477.94-27.15 482.89-27.15L482.89-27.15ZM482.89-22.5Q480.74-22.5 479.74-20.38 478.74-18.25 478.74-13.25L478.74-13.25Q478.74-8.2 479.74-6.08 480.74-3.95 482.89-3.95L482.89-3.95Q485.04-3.95 486.04-6.08 487.04-8.2 487.04-13.25L487.04-13.25Q487.04-18.3 486.04-20.4 485.04-22.5 482.89-22.5L482.89-22.5ZM510.19-27.15Q514.09-27.15 516.09-23.58 518.09-20 518.09-13.3L518.09-13.3Q518.09-6.8 515.82-3.03 513.54 0.75 509.49 0.75L509.49 0.75Q506.29 0.75 504.14-2.1L504.14-2.1 504.14 10.15 497.99 10.85 497.99-26.45 503.44-26.45 503.69-23.25Q504.99-25.25 506.59-26.2 508.19-27.15 510.19-27.15L510.19-27.15ZM507.84-3.95Q509.74-3.95 510.74-6.13 511.74-8.3 511.74-13.25L511.74-13.25Q511.74-18.45 510.89-20.5 510.04-22.55 508.24-22.55L508.24-22.55Q505.94-22.55 504.14-19.25L504.14-19.25 504.14-6.45Q505.74-3.95 507.84-3.95L507.84-3.95ZM546.34-27.15Q548.99-27.15 550.59-25.1 552.19-23.05 552.19-19.6L552.19-19.6 552.19 0 546.14 0 546.14-18.95Q546.14-20.85 545.64-21.68 545.14-22.5 544.19-22.5L544.19-22.5Q542.24-22.5 540.44-18.8L540.44-18.8 540.44 0 534.44 0 534.44-18.95Q534.44-22.5 532.54-22.5L532.54-22.5Q530.49-22.5 528.74-18.8L528.74-18.8 528.74 0 522.69 0 522.69-26.45 528.04-26.45 528.44-23.05Q531.04-27.15 534.69-27.15L534.69-27.15Q536.54-27.15 537.89-26 539.24-24.85 539.94-22.75L539.94-22.75Q542.59-27.15 546.34-27.15L546.34-27.15ZM576.54-13.85Q576.54-13.4 576.38-11.3L576.38-11.3 562.74-11.3Q562.94-7.2 564.16-5.58 565.38-3.95 567.63-3.95L567.63-3.95Q569.19-3.95 570.44-4.48 571.69-5 573.13-6.15L573.13-6.15 575.69-2.65Q572.19 0.75 567.29 0.75L567.29 0.75Q562.09 0.75 559.31-2.85 556.54-6.45 556.54-13L556.54-13Q556.54-19.55 559.19-23.35 561.84-27.15 566.69-27.15L566.69-27.15Q571.34-27.15 573.94-23.78 576.54-20.4 576.54-13.85L576.54-13.85ZM570.54-15.3L570.54-15.65Q570.54-19.4 569.63-21.13 568.74-22.85 566.74-22.85L566.74-22.85Q564.88-22.85 563.91-21.18 562.94-19.5 562.74-15.3L562.74-15.3 570.54-15.3ZM593.18-27.15Q596.03-27.15 597.68-25.1 599.33-23.05 599.33-19.6L599.33-19.6 599.33 0 593.18 0 593.18-18.9Q593.18-20.8 592.66-21.63 592.13-22.45 591.13-22.45L591.13-22.45Q589.03-22.45 586.98-18.5L586.98-18.5 586.98 0 580.83 0 580.83-26.45 586.18-26.45 586.63-23Q587.98-25.1 589.51-26.13 591.03-27.15 593.18-27.15L593.18-27.15ZM616.03-5L618.18-1.2Q615.73 0.75 612.43 0.75L612.43 0.75Q608.98 0.75 607.18-1.23 605.38-3.2 605.38-6.6L605.38-6.6 605.38-22 602.28-22 602.28-26.45 605.38-26.45 605.38-32.3 611.53-33.05 611.53-26.45 616.53-26.45 615.93-22 611.53-22 611.53-6.6Q611.53-4.2 613.58-4.2L613.58-4.2Q614.23-4.2 614.73-4.38 615.23-4.55 616.03-5L616.03-5Z" opacity="1" transform="matrix(1,0,0,1,0,0)" fill="#000000" class="slogan-text-1" data-fill-palette-color="secondary" id="text-1"></path></svg></g></svg></g></svg></g></svg></g><g></g></svg></g><defs></defs></svg>